<svg width="47" height="47" viewBox="0 0 47 47" fill="none" xmlns="http://www.w3.org/2000/svg">
<path fill-rule="evenodd" clip-rule="evenodd" d="M46.4881 20.6301V26.379C46.4934 26.5063 46.4722 26.6334 46.4259 26.7521C46.3797 26.8707 46.3093 26.9782 46.2193 27.0682C46.1292 27.1583 46.0214 27.2286 45.9028 27.2749C45.7842 27.3211 45.6573 27.3424 45.5301 27.337H40.1012C39.7911 28.877 39.3086 30.3771 38.663 31.8091L42.4962 35.6411C42.6058 35.7079 42.6965 35.8016 42.7594 35.9135C42.8223 36.0254 42.8553 36.1516 42.8553 36.28C42.8553 36.4084 42.8223 36.5346 42.7594 36.6465C42.6965 36.7584 42.6058 36.8524 42.4962 36.9192L37.0661 42.3492C36.9995 42.4589 36.9059 42.5495 36.794 42.6124C36.6822 42.6754 36.5559 42.7084 36.4275 42.7084C36.2992 42.7084 36.1732 42.6754 36.0613 42.6124C35.9495 42.5495 35.8559 42.4589 35.7893 42.3492L31.3184 38.037C31.2239 37.9427 31.149 37.8308 31.0978 37.7075C31.0467 37.5842 31.0203 37.452 31.0203 37.3185C31.0202 37.185 31.0465 37.0529 31.0975 36.9295C31.1486 36.8062 31.2234 36.6939 31.3178 36.5994C31.4121 36.505 31.524 36.4303 31.6473 36.3792C31.7706 36.328 31.9028 36.3017 32.0363 36.3016C32.1698 36.3016 32.3019 36.3279 32.4253 36.3789C32.5486 36.4299 32.661 36.5045 32.7554 36.5988L36.4281 40.4321L40.5802 36.28L36.7473 32.607C36.6091 32.4595 36.5195 32.2732 36.4909 32.0732C36.4623 31.8732 36.4959 31.6694 36.5871 31.4891C37.458 29.7695 38.1024 27.9442 38.5043 26.059C38.5043 25.7401 38.9893 25.4213 39.3022 25.4213H44.5721V21.5881H39.3081C39.1004 21.576 38.9045 21.488 38.7574 21.3409C38.6103 21.1938 38.5224 20.9979 38.5102 20.7903C38.1055 18.957 37.4608 17.1852 36.593 15.5204C36.497 15.3138 36.4611 15.0841 36.4894 14.8581C36.5177 14.6321 36.6091 14.4185 36.7532 14.242L40.5864 10.5693L36.4344 6.57739L32.7613 10.2501C32.5847 10.394 32.3713 10.4852 32.1452 10.5133C31.9192 10.5414 31.6897 10.5054 31.4833 10.4091C29.8128 9.55458 28.0426 8.91091 26.2134 8.49311C26.0057 8.48098 25.8095 8.393 25.6624 8.24591C25.5153 8.09882 25.4276 7.90292 25.4155 7.69526V2.42416H21.5823V7.69526C21.5823 8.01418 21.4236 8.49311 20.9446 8.49311C19.1154 8.9111 17.345 9.55476 15.6744 10.4091C15.468 10.5054 15.2388 10.5414 15.0127 10.5133C14.7867 10.4852 14.573 10.394 14.3964 10.2501L10.7245 6.57739L6.57276 10.5693L10.4045 14.242C10.5494 14.418 10.6414 14.6318 10.6697 14.8581C10.6981 15.0844 10.6617 15.314 10.5647 15.5204C9.69654 17.1849 9.05223 18.9569 8.64864 20.7903C8.62438 21.0219 8.51079 21.2348 8.33187 21.3838C8.15295 21.5329 7.92279 21.6061 7.69063 21.5881H2.42072V25.4213H7.69063C8.17568 25.4213 8.64864 25.7401 8.64864 26.059C9.04935 27.9444 9.69347 29.7697 10.5647 31.4891C10.6563 31.6693 10.6901 31.8734 10.6615 32.0735C10.6328 32.2736 10.543 32.4597 10.4045 32.607L6.57276 36.28L10.7245 40.4321L14.3964 36.5988C14.5889 36.4174 14.8447 36.3184 15.1093 36.3223C15.3738 36.3263 15.6265 36.4331 15.8135 36.6202C16.0006 36.8072 16.1074 37.0599 16.1114 37.3245C16.1153 37.589 16.016 37.8445 15.8346 38.037L11.3625 42.3492C11.3002 42.46 11.2062 42.5494 11.0925 42.6062C10.9788 42.6631 10.8505 42.6847 10.7245 42.6681C10.4044 42.6681 10.2396 42.6682 10.0856 42.3492L4.65557 37.079C4.54344 36.9956 4.45246 36.8874 4.38972 36.7626C4.32697 36.6377 4.2941 36.5 4.2941 36.3602C4.2941 36.2205 4.32697 36.0825 4.38972 35.9576C4.45246 35.8328 4.54344 35.7245 4.65557 35.6411L8.48848 31.8091C7.84269 30.3773 7.36088 28.8771 7.05177 27.337H1.46271C1.21425 27.32 0.980405 27.2138 0.804304 27.0377C0.628203 26.8616 0.521704 26.6275 0.504705 26.379V20.6301C0.499394 20.5029 0.520612 20.376 0.566875 20.2574C0.613137 20.1388 0.683479 20.031 0.773515 19.9409C0.863551 19.8509 0.97136 19.7805 1.08999 19.7343C1.20862 19.688 1.33549 19.6668 1.46271 19.6721H7.05177C7.33699 18.126 7.81971 16.6229 8.48848 15.2L4.65557 11.2081C4.55642 11.1337 4.47593 11.0372 4.42051 10.9263C4.36509 10.8154 4.33614 10.6933 4.33614 10.5693C4.33614 10.4453 4.36509 10.3229 4.42051 10.212C4.47593 10.101 4.55642 10.0046 4.65557 9.93012L10.0856 4.50122C10.2624 4.34669 10.4891 4.26172 10.7239 4.26172C10.9587 4.26172 11.1857 4.34669 11.3625 4.50122L15.1954 8.33324C16.627 7.68799 18.1268 7.2059 19.6663 6.89623V1.46615C19.661 1.33894 19.6822 1.21206 19.7285 1.09343C19.7747 0.974804 19.8451 0.866995 19.9351 0.776959C20.0251 0.686923 20.1329 0.616581 20.2516 0.570319C20.3702 0.524056 20.4971 0.502838 20.6243 0.508149H26.3732C26.5033 0.490008 26.636 0.502244 26.7605 0.543971C26.8849 0.585698 26.998 0.655693 27.0908 0.748539C27.1837 0.841384 27.2537 0.954725 27.2954 1.07922C27.3371 1.20372 27.3494 1.33611 27.3312 1.46615V6.89623C28.8772 7.18197 30.3802 7.66496 31.8033 8.33324L35.7952 4.50122C35.8618 4.39155 35.9557 4.30095 36.0676 4.23804C36.1794 4.17512 36.3055 4.14212 36.4338 4.14212C36.5621 4.14212 36.6881 4.17512 36.8 4.23804C36.9118 4.30095 37.0054 4.39155 37.072 4.50122L42.5021 9.93012C42.6011 10.0047 42.6813 10.1014 42.7366 10.2122C42.7919 10.3231 42.8207 10.4454 42.8207 10.5693C42.8207 10.6932 42.7919 10.8154 42.7366 10.9263C42.6813 11.0372 42.6011 11.1336 42.5021 11.2081L38.6692 15.2C39.3379 16.6231 39.8212 18.126 40.1074 19.6721H45.536C45.6656 19.655 45.7974 19.6681 45.9212 19.7103C46.0449 19.7525 46.1573 19.8227 46.2495 19.9155C46.3416 20.0082 46.4109 20.121 46.4523 20.245C46.4937 20.3689 46.506 20.5006 46.4881 20.6301ZM26.4218 38.8325H20.6729C20.5448 38.8282 20.4173 38.8506 20.2984 38.8979C20.1794 38.9453 20.0716 39.0167 19.9816 39.1078C19.8916 39.199 19.8214 39.3077 19.7755 39.4273C19.7297 39.5468 19.7089 39.6747 19.7148 39.8027C19.7305 40.0527 19.8363 40.2887 20.0124 40.467C20.1884 40.6453 20.423 40.754 20.6729 40.7728H26.4218C26.5498 40.7771 26.6773 40.7548 26.7963 40.7074C26.9153 40.66 27.0233 40.5886 27.1133 40.4975C27.2033 40.4063 27.2732 40.2976 27.3191 40.178C27.365 40.0585 27.3857 39.9306 27.3798 39.8027C27.4 39.6717 27.3892 39.538 27.3484 39.4119C27.3076 39.2858 27.2381 39.1707 27.145 39.0765C27.0519 38.9822 26.9378 38.911 26.8123 38.8686C26.6867 38.8263 26.553 38.8139 26.4218 38.8325ZM26.4218 42.7202H20.6729C20.5485 42.7125 20.4239 42.7307 20.3069 42.7735C20.19 42.8163 20.0831 42.8828 19.9931 42.9689C19.9031 43.055 19.832 43.1588 19.7841 43.2738C19.7362 43.3888 19.7126 43.5125 19.7148 43.6371C19.7366 43.88 19.8457 44.1069 20.0218 44.2756C20.198 44.4444 20.4292 44.5434 20.6729 44.5548H22.5208V45.5539C22.5414 45.8019 22.651 46.034 22.8293 46.2076C23.0075 46.3812 23.2425 46.4846 23.4909 46.4986C23.618 46.5056 23.7451 46.4862 23.8642 46.4415C23.9834 46.3968 24.0919 46.3278 24.1831 46.239C24.2742 46.1502 24.346 46.0437 24.3939 45.9258C24.4417 45.8079 24.4646 45.6811 24.4611 45.5539V44.5548H26.4182C26.5427 44.5629 26.6675 44.5451 26.7847 44.5024C26.902 44.4597 27.009 44.393 27.0991 44.3067C27.1892 44.2204 27.2604 44.1162 27.3081 44.0009C27.3558 43.8856 27.379 43.7618 27.3762 43.6371C27.3787 43.0259 27.0604 42.7202 26.4218 42.7202ZM19.6944 35.9295V34.3314C17.3358 33.6368 15.2602 32.2081 13.7691 30.2531C12.2779 28.2981 11.4488 25.9186 11.4025 23.4603C11.44 21.9081 11.7836 20.3787 12.4135 18.9595C13.0433 17.5403 13.947 16.2592 15.0728 15.19C16.1987 14.1207 17.5244 13.284 18.9741 12.728C20.4239 12.1721 21.9693 11.9079 23.5214 11.9503C30.3787 11.9503 35.8002 17.0662 35.8002 23.4603C35.75 25.9409 34.9002 28.3391 33.3774 30.2978C31.8545 32.2565 29.74 33.6712 27.3484 34.3314V35.9295C27.3539 36.0567 27.3326 36.1838 27.2865 36.3025C27.2404 36.4212 27.1704 36.5291 27.0805 36.6193C26.9906 36.7094 26.8829 36.7798 26.7643 36.8262C26.6457 36.8726 26.5188 36.8938 26.3916 36.8887H20.6509C20.4026 36.8716 20.169 36.7652 19.9931 36.5891C19.8172 36.4129 19.7111 36.1793 19.6944 35.931V35.9295ZM20.9701 32.7319C21.1742 32.788 21.3508 32.9162 21.468 33.0925C21.5852 33.2687 21.6349 33.4812 21.6078 33.6911V34.9706H25.4348V33.6911C25.4418 33.4651 25.5241 33.2482 25.6686 33.0744C25.8132 32.9006 26.0117 32.7799 26.2326 32.7319C28.3552 32.2526 30.2587 31.0821 31.644 29.404C33.0293 27.7259 33.818 25.6353 33.8866 23.4603C33.8866 18.1855 29.2619 13.8687 23.5214 13.8687C20.9005 13.8031 18.3593 14.7731 16.4489 16.5687C14.5385 18.3642 13.4129 20.8404 13.3161 23.4603C13.3844 25.6355 14.173 27.7266 15.5584 29.4049C16.9437 31.0833 18.8473 32.2538 20.9701 32.7331V32.7319Z" fill="#A100FF"/>
</svg>
