<svg width="47" height="47" viewBox="0 0 47 47" fill="none" xmlns="http://www.w3.org/2000/svg">
<path fill-rule="evenodd" clip-rule="evenodd" d="M23.4949 2.42486C22.2324 2.4445 21.028 2.95978 20.1422 3.85952C19.2563 4.75926 18.7598 5.97131 18.7598 7.23394C18.7598 8.49658 19.2563 9.70848 20.1422 10.6082C21.028 11.508 22.2324 12.0232 23.4949 12.0429C24.7573 12.0232 25.9614 11.508 26.8472 10.6082C27.7331 9.70848 28.2296 8.49658 28.2296 7.23394C28.2296 5.97131 27.7331 4.75926 26.8472 3.85952C25.9614 2.95978 24.7573 2.4445 23.4949 2.42486ZM23.4949 13.9669C22.1608 13.9775 20.8537 13.5915 19.7393 12.858C18.6249 12.1246 17.7535 11.0767 17.2356 9.84724C16.7178 8.61776 16.5769 7.26209 16.8308 5.95238C17.0846 4.64267 17.7215 3.43784 18.6612 2.49082C19.6008 1.5438 20.8008 0.897285 22.1085 0.633231C23.4162 0.369178 24.7727 0.499467 26.0062 1.00768C27.2397 1.51589 28.2946 2.37917 29.0368 3.48778C29.7789 4.59638 30.1748 5.90043 30.1746 7.23451C30.171 9.00988 29.4678 10.7122 28.2174 11.9725C26.9669 13.2328 25.2702 13.9494 23.4949 13.9669ZM21.578 34.993H25.4129V27.6353C25.4433 27.4588 25.5177 27.293 25.6295 27.1531C25.7413 27.0132 25.8866 26.9038 26.052 26.8352C28.9273 25.7161 30.8455 21.5563 31.1657 17.7179H15.8248C16.1451 21.5609 18.0621 25.7161 20.9386 26.8352C21.1205 26.8754 21.2831 26.9768 21.3994 27.1224C21.5158 27.2679 21.5789 27.4489 21.578 27.6353V34.993ZM26.3713 36.9123H20.6184C20.3697 36.8951 20.1356 36.7884 19.9594 36.612C19.7832 36.4356 19.6768 36.2013 19.66 35.9525V28.2747C15.9846 26.515 13.908 21.2372 13.908 16.7583C13.9246 16.5094 14.0308 16.2751 14.2071 16.0987C14.3833 15.9222 14.6176 15.8156 14.8664 15.7987H32.1242C32.2515 15.7934 32.3787 15.8146 32.4975 15.861C32.6162 15.9074 32.7238 15.9779 32.8139 16.0681C32.904 16.1583 32.9744 16.2662 33.0206 16.385C33.0669 16.5038 33.088 16.6309 33.0826 16.7583C33.0826 21.2372 31.1658 26.515 27.3297 28.2747V35.9525C27.336 36.0804 27.3156 36.2082 27.2697 36.3277C27.2239 36.4472 27.1535 36.5559 27.0633 36.6467C26.9732 36.7375 26.8649 36.8085 26.7457 36.8553C26.6266 36.902 26.4992 36.9234 26.3713 36.9181V36.9123ZM23.4949 41.652C18.2415 41.652 9.17068 40.7017 9.17068 37.3746C9.17068 35.6277 11.3995 34.5236 15.6921 33.7317C16.1695 33.5734 16.647 34.0486 16.8066 34.5237C16.9661 34.9988 16.4888 35.474 16.0102 35.6324C12.1904 36.2659 11.2354 37.2162 11.0759 37.3792C11.3938 38.1723 15.8504 39.7561 23.4923 39.7561C31.1342 39.7561 35.7506 38.1723 35.9101 37.3792C35.9101 37.2209 34.7956 36.2706 30.9747 35.6324C30.8598 35.6019 30.7523 35.5488 30.658 35.4765C30.5636 35.4041 30.4843 35.3138 30.4251 35.2108C30.3659 35.1077 30.3278 34.9939 30.3128 34.876C30.2978 34.758 30.3063 34.6383 30.3378 34.5237C30.3436 34.392 30.3794 34.2634 30.4424 34.1476C30.5055 34.0317 30.594 33.9318 30.7015 33.8554C30.8089 33.779 30.9324 33.7281 31.0625 33.7067C31.1926 33.6853 31.326 33.6939 31.4523 33.7317C35.7507 34.5236 37.8202 35.6324 37.8202 37.3746C37.8225 40.7017 28.9078 41.652 23.4949 41.652ZM23.4949 46.5C12.3407 46.5 0.552734 43.4594 0.552734 37.8579C0.552734 33.3767 8.36113 30.655 15.6921 29.6954C16.3291 29.6954 16.8077 30.0145 16.8077 30.4955C16.8456 30.6226 16.8539 30.7566 16.8322 30.8874C16.8104 31.0182 16.7592 31.1424 16.6823 31.2504C16.6054 31.3584 16.5048 31.4473 16.3884 31.5107C16.2719 31.574 16.1427 31.6099 16.0102 31.6157C7.08733 32.736 2.46619 35.6173 2.46619 37.8579C2.46619 41.0581 11.0712 44.5797 23.4994 44.5797C35.9276 44.5797 44.5326 41.0581 44.5326 37.8579C44.5326 35.6173 39.9117 32.7337 31.1484 31.6157C30.5114 31.6157 30.1922 31.1348 30.1922 30.4955C30.2737 30.2638 30.4243 30.0627 30.6238 29.9196C30.8234 29.7765 31.0623 29.6983 31.3079 29.6954C38.6377 30.655 46.4472 33.3767 46.4472 37.8579C46.4402 43.4594 34.6491 46.5 23.4949 46.5Z" fill="#A100FF"/>
</svg>
