<svg width="47" height="47" viewBox="0 0 47 47" fill="none" xmlns="http://www.w3.org/2000/svg">
<path fill-rule="evenodd" clip-rule="evenodd" d="M27.32 36.9033H24.009C22.9952 35.7331 21.7438 34.7919 20.3383 34.1425C18.9327 33.4931 17.4052 33.1503 15.857 33.1368H10.1117V32.1532C10.1168 32.0262 10.0957 31.8994 10.0493 31.781C10.0029 31.6627 9.93261 31.5551 9.84259 31.4654C9.75258 31.3756 9.64448 31.3056 9.52598 31.2596C9.40749 31.2135 9.28081 31.1924 9.15379 31.1978H1.48016C1.23203 31.2145 0.998665 31.3203 0.82258 31.496C0.646494 31.6716 0.539561 31.9051 0.522204 32.1532V45.5362C0.517138 45.6632 0.538895 45.7897 0.585276 45.9081C0.631658 46.0264 0.701961 46.1339 0.79198 46.2237C0.881999 46.3135 0.989471 46.3837 1.10797 46.4298C1.22646 46.4759 1.35314 46.4967 1.48016 46.4913H9.15379C9.28372 46.5101 9.41636 46.4983 9.54097 46.457C9.66558 46.4156 9.77899 46.3461 9.87195 46.2534C9.9649 46.1607 10.0351 46.0475 10.0768 45.923C10.1184 45.7985 10.1302 45.6662 10.1117 45.5362V44.5526H41.6812C41.8111 44.5714 41.9437 44.5596 42.0683 44.5183C42.193 44.4769 42.3064 44.4071 42.3993 44.3144C42.4923 44.2217 42.5619 44.1085 42.6035 43.984C42.6452 43.8595 42.6576 43.7271 42.6391 43.5972C42.6378 39.7706 34.6598 36.9033 27.32 36.9033ZM2.44186 44.577V33.1074H8.19708V43.5038C8.18807 43.5336 8.18132 43.564 8.17585 43.5947C8.18093 43.6313 8.18768 43.6675 8.19708 43.7033V44.577H2.44186ZM10.1155 42.6392V35.0168H15.8607C17.8094 34.9883 19.7038 35.6575 21.2025 36.9033H13.9217C13.6729 36.9187 13.4386 37.0241 13.2623 37.2003C13.0859 37.3764 12.9795 37.611 12.9638 37.8597C12.9585 37.9868 12.9799 38.1138 13.0262 38.2322C13.0725 38.3507 13.1428 38.4581 13.2329 38.5479C13.323 38.6377 13.4309 38.708 13.5495 38.754C13.6681 38.8 13.7946 38.8208 13.9217 38.8152H27.325C33.8667 38.8152 38.9722 40.8858 40.4085 42.6392H10.1155ZM30.2026 10.0853C28.4212 10.0977 26.7168 10.8106 25.4571 12.0702C24.1975 13.3298 23.4843 15.0349 23.4719 16.8163C23.4635 17.7026 23.6318 18.5817 23.9671 19.4022C24.3024 20.2227 24.798 20.968 25.4247 21.5948C26.0514 22.2216 26.7968 22.7172 27.6172 23.0526C28.4377 23.3881 29.3162 23.5567 30.2026 23.5485C31.0925 23.5701 31.9777 23.4105 32.8042 23.0798C33.6306 22.7491 34.3817 22.254 35.0111 21.6245C35.6405 20.9949 36.1349 20.2444 36.4655 19.4178C36.7961 18.5913 36.9556 17.7062 36.9339 16.8163C36.9421 15.9296 36.7731 15.05 36.4374 14.2293C36.1017 13.4087 35.6058 12.6632 34.9786 12.0365C34.3514 11.4097 33.6058 10.9143 32.7848 10.5792C31.9639 10.2442 31.0842 10.0764 30.1976 10.0853H30.2026ZM30.2026 21.6251C28.9283 21.6214 27.7077 21.1135 26.8066 20.2125C25.9056 19.3115 25.3978 18.0905 25.3941 16.8163C25.4252 15.5508 25.942 14.3459 26.8372 13.4509C27.7324 12.556 28.9371 12.0395 30.2026 12.0087C31.4765 12.0124 32.6971 12.5202 33.5979 13.4209C34.4987 14.3217 35.0067 15.5424 35.0105 16.8163C35.0221 17.4513 34.9054 18.082 34.6676 18.671C34.4298 19.2599 34.0759 19.7948 33.6266 20.2437C33.1773 20.6927 32.642 21.0465 32.0529 21.2838C31.4638 21.5211 30.8326 21.6372 30.1976 21.6251H30.2026ZM45.9901 20.3358L43.4322 19.0569C43.5649 18.3178 43.6185 17.5667 43.5921 16.8163C43.6126 16.1194 43.559 15.4223 43.4322 14.7367L45.9901 13.2979C46.1664 13.142 46.2911 12.9362 46.3479 12.7078C46.4048 12.4794 46.3912 12.2393 46.3086 12.019L42.4818 5.46037C42.3219 5.14063 42.1633 4.97952 41.8423 4.97952C41.6837 4.81965 41.364 4.97949 41.2028 5.14063L38.8111 6.41957C37.703 5.54124 36.4661 4.83978 35.1435 4.34005V1.46119C35.1491 1.33389 35.1277 1.20686 35.0816 1.08806C35.0356 0.969254 34.9655 0.861411 34.8756 0.771134C34.7857 0.680857 34.6782 0.610017 34.5596 0.563494C34.441 0.516971 34.3141 0.495656 34.1868 0.500734H26.5337C26.2851 0.518129 26.0508 0.625146 25.8749 0.801734C25.699 0.978322 25.5934 1.21249 25.577 1.46119V4.34005C24.2421 4.81233 23.0006 5.51626 21.9101 6.41957L19.5183 4.97952C19.2591 4.89655 18.9802 4.89865 18.7221 4.98514C18.464 5.07162 18.2401 5.23795 18.0833 5.46037L14.2571 12.019C14.1789 12.1376 14.1372 12.2766 14.1372 12.4187C14.1372 12.5607 14.1789 12.6997 14.2571 12.8183C14.2571 12.9782 14.4157 13.2992 14.5755 13.2992L17.1272 14.738C17.0004 15.4236 16.9468 16.1206 16.9673 16.8175C16.9409 17.568 16.9945 18.319 17.1272 19.0581L14.5755 20.3371C14.3733 20.51 14.2327 20.7439 14.1752 21.0037C14.1178 21.2635 14.1466 21.5351 14.2571 21.7771L18.0833 28.3354C18.138 28.4487 18.2174 28.5486 18.3149 28.628C18.4125 28.7074 18.5264 28.7642 18.6484 28.7948C18.7704 28.8253 18.8972 28.8286 19.0206 28.8044C19.144 28.7803 19.2606 28.7294 19.3622 28.6552L21.9201 27.3762C23.0106 28.2796 24.2521 28.9838 25.587 29.4561V32.1751C25.5814 32.3024 25.6022 32.4294 25.6482 32.5482C25.6943 32.667 25.7644 32.7748 25.8543 32.8651C25.9442 32.9554 26.0523 33.0259 26.1709 33.0725C26.2895 33.119 26.4164 33.1406 26.5437 33.1355H34.1968C34.327 33.154 34.4598 33.1417 34.5846 33.0999C34.7093 33.0581 34.8227 32.988 34.9155 32.8948C35.0084 32.8016 35.0784 32.6878 35.1197 32.5629C35.161 32.438 35.1725 32.3053 35.1535 32.1751V29.4561C36.4761 28.9563 37.7137 28.2546 38.8217 27.3762L41.2128 28.6552C41.3998 28.7836 41.6267 28.8411 41.8523 28.8166C42.172 28.8166 42.3306 28.6552 42.4917 28.3354L46.3186 21.7771C46.3916 21.6607 46.4413 21.5309 46.4641 21.3953C46.4868 21.2597 46.4826 21.1211 46.4516 20.9872C46.4206 20.8532 46.363 20.7268 46.283 20.615C46.2029 20.5032 46.1019 20.4083 45.9851 20.3358H45.9901ZM41.3652 26.5744L39.1333 25.2955C38.9533 25.204 38.7498 25.1704 38.55 25.199C38.3502 25.2276 38.1644 25.3171 38.0173 25.4553C36.8902 26.5497 35.5265 27.3705 34.0319 27.8546C33.8108 27.9027 33.612 28.0234 33.4674 28.1974C33.3228 28.3715 33.2406 28.5889 33.2338 28.8151V31.2146H27.4942V28.8151C27.522 28.6047 27.4725 28.3916 27.3549 28.2149C27.2373 28.0383 27.0596 27.9101 26.8547 27.8546C25.2836 27.4384 23.8519 26.6101 22.7082 25.4553C22.5611 25.3171 22.3753 25.2276 22.1755 25.199C21.9757 25.1704 21.7715 25.204 21.5916 25.2955L19.3597 26.5744L16.4902 21.616L18.5629 20.3371C18.7574 20.2322 18.9106 20.0645 18.9975 19.8612C19.0844 19.658 19.0998 19.4311 19.0412 19.218C18.8971 18.4265 18.8435 17.6212 18.8813 16.8175C18.855 16.0144 18.9085 15.2107 19.0412 14.4182C19.0795 14.3243 19.0975 14.2233 19.0937 14.1219C19.0898 14.0206 19.0646 13.9211 19.0194 13.8303C18.9741 13.7395 18.91 13.6595 18.8314 13.5955C18.7527 13.5314 18.6609 13.485 18.5629 13.459L16.4902 12.1801L19.3597 7.22016L21.5916 8.4991C21.7715 8.59056 21.9757 8.6245 22.1755 8.59589C22.3753 8.56728 22.5611 8.47751 22.7082 8.33923C23.8519 7.18443 25.2836 6.35615 26.8547 5.93997C27.0596 5.88449 27.2373 5.75661 27.3549 5.57996C27.4725 5.4033 27.522 5.18991 27.4942 4.97952V2.42164H33.2338V4.97952C33.2406 5.2057 33.3228 5.42308 33.4674 5.59713C33.612 5.77117 33.8108 5.89185 34.0319 5.93997C35.5267 6.42357 36.8905 7.24446 38.0173 8.33923C38.1644 8.47751 38.3502 8.56728 38.55 8.59589C38.7498 8.6245 38.9533 8.59056 39.1333 8.4991L41.2066 7.22016L44.0767 12.1801L42.0034 13.459C41.6849 13.6189 41.3639 14.0985 41.5251 14.4182C41.7384 16.0646 41.7384 17.7315 41.5251 19.3779C41.3652 19.6976 41.6849 20.1772 42.0034 20.3371L44.2353 21.616L41.3652 26.5744Z" fill="#460073"/>
</svg>
