<svg width="47" height="47" viewBox="0 0 47 47" fill="none" xmlns="http://www.w3.org/2000/svg">
<path fill-rule="evenodd" clip-rule="evenodd" d="M12.6556 34.3962C12.8123 34.6021 12.8969 34.8537 12.8969 35.1125C12.8969 35.3712 12.8123 35.6227 12.6556 35.8287L3.72315 44.5921H11.0403C11.1684 44.5875 11.2962 44.6088 11.4159 44.6547C11.5356 44.7005 11.6446 44.7701 11.7368 44.8591C11.829 44.9481 11.903 45.0548 11.9531 45.1727C12.0032 45.2907 12.0292 45.4176 12.0292 45.5457C12.0292 45.6739 12.0032 45.8008 11.9531 45.9188C11.903 46.0368 11.829 46.1435 11.7368 46.2325C11.6446 46.3215 11.5356 46.391 11.4159 46.4368C11.2962 46.4827 11.1684 46.504 11.0403 46.4994H1.41367H1.40535C1.28895 46.499 1.17487 46.4723 1.07016 46.4215L1.04639 46.4094C1.01011 46.3904 0.976501 46.3666 0.946548 46.3387C0.80568 46.2573 0.687011 46.1426 0.600661 46.0047C0.514311 45.8668 0.462629 45.7099 0.450896 45.5476V36.0113C0.450896 35.7559 0.553234 35.5111 0.733786 35.3305C0.914338 35.1499 1.15833 35.0485 1.41367 35.0485C1.66901 35.0485 1.9142 35.1499 2.09475 35.3305C2.2753 35.5111 2.37645 35.7559 2.37645 36.0113V43.3628L11.3778 34.4046C11.554 34.2493 11.7801 34.163 12.0149 34.1614C12.2498 34.1599 12.4774 34.2432 12.6556 34.3962ZM45.5885 0.501189H35.9631C35.7078 0.501189 35.4626 0.602635 35.2821 0.783187C35.1015 0.96374 35.0004 1.20863 35.0004 1.46397C35.0004 1.71931 35.1015 1.96419 35.2821 2.14475C35.4626 2.3253 35.7078 2.42667 35.9631 2.42667H43.3183L34.3989 11.4189C34.287 11.5033 34.1964 11.6126 34.1339 11.7381C34.0713 11.8635 34.0388 12.0017 34.0388 12.1419C34.0388 12.2821 34.0713 12.4203 34.1339 12.5458C34.1964 12.6713 34.287 12.7805 34.3989 12.8649C34.5584 13.0244 34.7172 13.0244 35.0336 13.0244C35.2584 13.0479 35.4847 12.9915 35.6719 12.8649C35.6719 12.8649 35.6871 12.8479 44.6246 3.69983V11.0903C44.6246 11.3457 44.7269 11.5906 44.9075 11.7711C45.088 11.9517 45.332 12.053 45.5874 12.053C45.8427 12.053 46.0879 11.9517 46.2684 11.7711C46.449 11.5906 46.5501 11.3457 46.5501 11.0903V1.46397C46.5331 1.21445 46.4273 0.979463 46.2506 0.802502C46.0739 0.625542 45.838 0.518535 45.5885 0.501189ZM3.70176 2.42548H11.0391C11.2944 2.42548 11.5396 2.32404 11.7202 2.14348C11.9007 1.96293 12.0019 1.71804 12.0019 1.4627C12.0019 1.20736 11.9007 0.962477 11.7202 0.781925C11.5396 0.601372 11.2944 0.5 11.0391 0.5H1.41249C1.16286 0.517316 0.928553 0.624302 0.751615 0.80124C0.574678 0.978177 0.467023 1.21308 0.449707 1.4627V11.0891C0.449707 11.3444 0.552045 11.5893 0.732597 11.7699C0.91315 11.9504 1.15715 12.0518 1.41249 12.0518C1.66782 12.0518 1.91301 11.9504 2.09356 11.7699C2.27411 11.5893 2.37526 11.3444 2.37526 11.0891V3.66454C3.76159 5.05451 6.37541 7.68109 11.3766 12.7018C11.4525 12.7995 11.549 12.879 11.6595 12.9344C11.7701 12.9898 11.8913 13.0197 12.0149 13.0219C12.2554 12.9824 12.4788 12.8708 12.6544 12.7018C12.8091 12.5234 12.8945 12.2952 12.8945 12.0591C12.8945 11.823 12.8091 11.5949 12.6544 11.4165L3.70176 2.42548ZM45.5874 35.0449C45.3386 35.0607 45.1047 35.1661 44.9277 35.3415C44.7507 35.5169 44.6426 35.7505 44.6246 35.9991V43.3288L35.6719 34.3377C35.5009 34.1758 35.2727 34.0872 35.0372 34.0906C34.8017 34.0941 34.577 34.1894 34.4108 34.3563C34.2446 34.5231 34.1507 34.7483 34.1481 34.9838C34.1456 35.2193 34.2352 35.4465 34.3977 35.617L43.3266 44.5824H35.9619C35.8339 44.5778 35.706 44.5991 35.5863 44.6449C35.4667 44.6908 35.3577 44.7604 35.2654 44.8494C35.1732 44.9384 35.0992 45.045 35.0491 45.163C34.999 45.281 34.973 45.4078 34.973 45.536C34.973 45.6642 34.999 45.791 35.0491 45.909C35.0992 46.027 35.1732 46.1337 35.2654 46.2227C35.3577 46.3117 35.4667 46.3812 35.5863 46.4271C35.706 46.473 35.8339 46.4942 35.9619 46.4897H45.5945C45.6871 46.5052 45.7812 46.4959 45.8691 46.4628C45.9569 46.4296 46.0344 46.3738 46.0937 46.301C46.2245 46.2184 46.3341 46.1062 46.4134 45.9734C46.4927 45.8406 46.5394 45.6909 46.5501 45.5366V36.0004C46.5324 35.7518 46.4262 35.518 46.2494 35.3424C46.0726 35.1667 45.8372 35.061 45.5885 35.0449H45.5874ZM16.7539 12.9672C16.7539 11.6326 17.15 10.3279 17.8914 9.21827C18.6329 8.10859 19.6858 7.24367 20.9188 6.73295C22.1518 6.22222 23.5085 6.08858 24.8175 6.34895C26.1265 6.60932 27.3291 7.25199 28.2728 8.19569C29.2165 9.13939 29.8595 10.3417 30.1199 11.6507C30.3803 12.9596 30.2467 14.3164 29.736 15.5494C29.2253 16.7824 28.3603 17.8363 27.2506 18.5778C26.1409 19.3193 24.8363 19.715 23.5017 19.715C21.7158 19.7048 20.0056 18.9911 18.7425 17.7286C17.4793 16.4661 16.7651 14.7566 16.7539 12.9708V12.9672ZM18.6819 12.9672C18.6701 13.6033 18.7861 14.2353 19.0242 14.8254C19.2623 15.4155 19.6179 15.9515 20.0678 16.4014C20.5177 16.8514 21.0538 17.2059 21.6439 17.444C22.234 17.6821 22.8655 17.7987 23.5017 17.787C24.7789 17.7835 26.0028 17.2746 26.9059 16.3714C27.809 15.4683 28.318 14.2444 28.3215 12.9672C28.2907 11.6986 27.7735 10.4904 26.8762 9.59313C25.9789 8.69583 24.7703 8.17813 23.5017 8.14725C22.2238 8.15079 20.9996 8.66023 20.0963 9.56415C19.1931 10.4681 18.6844 11.6929 18.6819 12.9708V12.9672ZM33.0558 22.512C33.0558 27.0008 30.9867 32.2905 27.3231 34.0541V41.7489C27.307 41.9976 27.2016 42.232 27.0259 42.4088C26.8503 42.5855 26.616 42.6927 26.3675 42.7105H20.6348C20.5076 42.7151 20.3811 42.6933 20.2627 42.6466C20.1444 42.5998 20.0374 42.5291 19.9477 42.4387C19.8581 42.3484 19.788 42.2404 19.7421 42.1217C19.6962 42.003 19.6759 41.876 19.6815 41.7489V34.0541C15.8585 32.2905 13.9488 26.9947 13.9488 22.512C13.943 22.3848 13.9636 22.2578 14.0094 22.139C14.0552 22.0201 14.1242 21.9121 14.2139 21.8217C14.3036 21.7314 14.4116 21.6606 14.53 21.6139C14.6485 21.5672 14.7748 21.5456 14.9021 21.5504H32.1025C32.3515 21.5685 32.5843 21.6763 32.7598 21.8538C32.9353 22.0313 33.0405 22.2665 33.0558 22.5156V22.512ZM30.9876 23.4735H15.8565C16.1766 27.3209 17.9263 31.4896 20.9545 32.6118C21.1191 32.6812 21.263 32.7909 21.3741 32.9309C21.4851 33.0709 21.5591 33.2366 21.5892 33.4127V40.7874H25.413V33.4127C25.412 33.2268 25.4734 33.0461 25.5889 32.9005C25.7044 32.7549 25.8665 32.6531 26.0477 32.6118C28.9153 31.4933 30.8282 27.3245 30.9864 23.482L30.9876 23.4735Z" fill="#A055F5"/>
</svg>
