<svg width="49" height="47" viewBox="0 0 49 47" fill="none" xmlns="http://www.w3.org/2000/svg">
<path fill-rule="evenodd" clip-rule="evenodd" d="M28.0971 24.2198C28.8423 23.6981 29.4493 23.0093 29.8697 22.2105C30.2901 21.4116 30.5119 20.5257 30.5145 19.6263C30.4696 18.0871 29.8154 16.6259 28.6924 15.5528C27.5695 14.4798 26.0659 13.8795 24.5001 13.8795C22.9342 13.8795 21.4294 14.4798 20.3065 15.5528C19.1835 16.6259 18.5305 18.0871 18.4856 19.6263C18.4882 20.5259 18.7088 21.412 19.1292 22.211C19.5495 23.0101 20.1577 23.6991 20.903 24.221C19.3194 24.8808 17.9682 25.9846 17.0185 27.3946C16.0688 28.8046 15.5622 30.4584 15.5623 32.1496C15.5817 32.4001 15.6933 32.6354 15.875 32.8121C16.0567 32.9888 16.2974 33.095 16.5524 33.1113H32.4393C32.6944 33.0953 32.9349 32.9891 33.1167 32.8124C33.2984 32.6356 33.409 32.4002 33.4282 32.1496C33.4289 30.4592 32.9237 28.8059 31.9756 27.3959C31.0275 25.9858 29.6791 24.8812 28.0971 24.2198ZM24.5001 15.7951C25.2662 15.8164 26.0084 16.0592 26.6349 16.4933C27.2614 16.9274 27.7441 17.5334 28.0223 18.2356C28.3005 18.9379 28.3626 19.7052 28.1998 20.4416C28.037 21.1781 27.6566 21.851 27.107 22.3762C26.5574 22.9015 25.8631 23.2558 25.1098 23.3949C24.3566 23.534 23.5783 23.4517 22.8724 23.1582C22.1664 22.8648 21.563 22.3733 21.1396 21.7451C20.7162 21.1169 20.491 20.3799 20.4912 19.6263C20.5205 18.6001 20.9561 17.6257 21.7047 16.9102C22.4533 16.1948 23.4561 15.7947 24.5001 15.7951ZM17.5498 31.1878C17.8048 29.5629 18.6496 28.0837 19.9273 27.0233C21.205 25.9629 22.8295 25.3929 24.5013 25.4186C26.1606 25.3731 27.7773 25.94 29.0329 27.0078C30.2886 28.0755 31.0925 29.5666 31.2861 31.1878H17.5498ZM34.4823 14.8735C34.7296 14.8339 34.9584 14.723 35.1416 14.5549L40.6441 9.25625C41.4836 9.82263 42.4793 10.1242 43.4974 10.1207C44.7996 10.1047 46.0447 9.59641 46.9762 8.70134C47.9076 7.80627 48.4537 6.59304 48.5 5.31322C48.4808 4.02455 47.9436 2.79568 47.0063 1.89478C46.0691 0.993882 44.808 0.494121 43.4974 0.504534C42.8447 0.485566 42.1942 0.596146 41.5859 0.829684C40.9777 1.06322 40.424 1.41491 39.9571 1.86376C39.4901 2.31261 39.1192 2.84942 38.8679 3.44209C38.6166 4.03476 38.4891 4.67112 38.4936 5.31322C38.4966 6.262 38.7912 7.18788 39.3376 7.96989L33.8206 13.2819C33.7075 13.3468 33.613 13.4397 33.5477 13.5514C33.4825 13.6631 33.4487 13.7896 33.4487 13.9184C33.4487 14.0472 33.4825 14.1738 33.5477 14.2855C33.613 14.3972 33.7075 14.4901 33.8206 14.5549C33.9003 14.6526 34.0009 14.7318 34.1152 14.7869C34.2296 14.8419 34.355 14.8715 34.4823 14.8735ZM43.4974 2.42801C44.0746 2.44117 44.6347 2.62152 45.1082 2.94644C45.5817 3.27137 45.947 3.72642 46.1587 4.25465C46.3704 4.78288 46.4183 5.36079 46.2975 5.91599C46.1768 6.47119 45.893 6.979 45.4801 7.37584C45.0672 7.77269 44.544 8.04091 43.9768 8.14692C43.4095 8.25293 42.8233 8.19203 42.2911 7.97182C41.7589 7.75162 41.3041 7.38194 40.9846 6.90903C40.6651 6.43611 40.4945 5.88098 40.4944 5.31322C40.4971 4.92944 40.5772 4.55001 40.7298 4.19681C40.8825 3.8436 41.1052 3.5236 41.3843 3.25534C41.6634 2.98709 41.9937 2.77588 42.3563 2.63387C42.7189 2.49187 43.1071 2.4219 43.4974 2.42801ZM43.4974 36.9801C42.5103 36.9724 41.5404 37.2415 40.7033 37.7559L37.1702 34.2055C36.9539 34.0497 36.6921 33.9656 36.424 33.9656C36.1558 33.9656 35.8952 34.0497 35.6789 34.2055C35.5165 34.4115 35.4278 34.6647 35.4278 34.9253C35.4278 35.186 35.5165 35.4392 35.6789 35.6451L39.3352 39.0398C38.7811 39.8317 38.4868 40.7717 38.4936 41.7329C38.5345 43.0108 39.0801 44.223 40.0138 45.1127C40.9475 46.0025 42.1972 46.5 43.4974 46.5C44.7976 46.5 46.046 46.0025 46.9798 45.1127C47.9135 44.223 48.4591 43.0108 48.5 41.7329C48.5006 41.0945 48.3694 40.4624 48.116 39.8746C47.8627 39.2867 47.4914 38.7551 47.0245 38.3115C46.5575 37.8679 46.0054 37.5214 45.3992 37.2926C44.793 37.0639 44.1463 36.9576 43.4974 36.9801ZM43.4974 44.5853C42.928 44.5662 42.376 44.3827 41.912 44.0577C41.4479 43.7327 41.0913 43.2806 40.8868 42.7577C40.6823 42.2348 40.6394 41.6643 40.7624 41.1173C40.8854 40.5703 41.1691 40.071 41.5787 39.6816C41.9883 39.2922 42.5062 39.0301 43.0663 38.9277C43.6265 38.8254 44.2045 38.8875 44.729 39.1063C45.2535 39.325 45.7004 39.6907 46.015 40.1578C46.3296 40.6249 46.4979 41.1727 46.498 41.7329C46.4929 42.1144 46.4104 42.4911 46.2565 42.8413C46.1026 43.1915 45.8798 43.5083 45.6008 43.7735C45.3219 44.0386 44.9924 44.2469 44.6312 44.3862C44.2701 44.5255 43.8853 44.5932 43.4974 44.5853ZM5.50272 10.1207C6.47962 10.114 7.43242 9.82292 8.24129 9.28422L13.8996 14.5549C13.9796 14.6531 14.0804 14.7325 14.1954 14.7876C14.3104 14.8427 14.4369 14.872 14.5649 14.8735C14.8139 14.8346 15.0455 14.7237 15.2302 14.5549C15.3905 14.3804 15.4789 14.1536 15.4789 13.9184C15.4789 13.6833 15.3905 13.4565 15.2302 13.2819L9.63956 7.93219C10.1938 7.16597 10.4962 6.25107 10.5053 5.31081C10.4867 4.02215 9.95 2.79307 9.01287 1.89207C8.07575 0.991072 6.81451 0.491355 5.50392 0.502085C4.85121 0.483117 4.20196 0.593734 3.59369 0.827272C2.98541 1.06081 2.43054 1.4125 1.96358 1.86135C1.49662 2.3102 1.12691 2.84697 0.87564 3.43964C0.62437 4.03231 0.496881 4.66871 0.50132 5.31081C0.519572 6.59989 1.05634 7.82943 1.99377 8.73073C2.9312 9.63202 4.19291 10.1318 5.50392 10.1207H5.50272ZM5.50272 2.42801C5.89286 2.42207 6.28013 2.49217 6.64258 2.63424C7.00504 2.77632 7.33561 2.98755 7.6146 3.25579C7.8936 3.52403 8.11525 3.84394 8.26785 4.19707C8.42046 4.55019 8.50058 4.92954 8.50331 5.31322C8.50396 5.69526 8.42658 6.07351 8.2751 6.42533C8.12362 6.77714 7.90129 7.0953 7.62185 7.36074C7.60701 7.37412 7.59325 7.37895 7.57717 7.39354V7.39963C7.01556 7.91477 6.27556 8.20001 5.50755 8.19723C5.11725 8.20511 4.7294 8.13633 4.36647 7.9949C4.00355 7.85348 3.67331 7.64226 3.39445 7.37362C3.11559 7.10498 2.89365 6.78431 2.74241 6.43041C2.59117 6.07651 2.51299 5.6965 2.51299 5.31262C2.51299 4.92875 2.59117 4.54874 2.74241 4.19484C2.89365 3.84094 3.11559 3.52027 3.39445 3.25163C3.67331 2.98299 4.00355 2.77177 4.36647 2.63035C4.7294 2.48892 5.11725 2.42014 5.50755 2.42801H5.50272ZM11.8444 34.2055L8.29321 37.8021C7.4639 37.2674 6.49439 36.9818 5.50272 36.9801C4.85384 36.9576 4.20711 37.0639 3.60093 37.2926C2.99475 37.5214 2.4414 37.8679 1.97445 38.3115C1.5075 38.7551 1.13625 39.2867 0.882885 39.8746C0.629523 40.4624 0.499541 41.0945 0.500112 41.7329C0.526116 43.0144 1.06723 44.2336 2.00464 45.1242C2.94205 46.0148 4.19941 46.5042 5.50272 46.4857C6.79743 46.4762 8.03836 45.9774 8.9694 45.0927C9.90044 44.2079 10.4502 43.005 10.5041 41.7329C10.5051 40.7849 10.2072 39.8599 9.65042 39.086L13.3248 35.6451C13.4856 35.4385 13.5723 35.1855 13.5723 34.9253C13.5723 34.6651 13.4856 34.4122 13.3248 34.2055C13.1112 34.0489 12.8523 33.9642 12.5858 33.9642C12.3193 33.9642 12.0592 34.0489 11.8456 34.2055H11.8444ZM5.50272 44.5853C4.93332 44.5662 4.38256 44.3827 3.9185 44.0577C3.45443 43.7327 3.09786 43.2806 2.89334 42.7577C2.68883 42.2348 2.64477 41.6643 2.76777 41.1173C2.89076 40.5703 3.1756 40.071 3.58523 39.6816C3.99487 39.2922 4.5115 39.0301 5.07164 38.9277C5.63179 38.8254 6.20984 38.8875 6.73435 39.1063C7.25886 39.325 7.70696 39.6907 8.02153 40.1578C8.33609 40.6249 8.50323 41.1727 8.50331 41.7329C8.49834 42.1143 8.41676 42.491 8.26302 42.8412C8.10929 43.1914 7.88742 43.5083 7.60857 43.7734C7.32971 44.0386 7.00006 44.2468 6.63896 44.3862C6.27786 44.5255 5.89175 44.5932 5.50392 44.5853H5.50272ZM43.4974 17.7478C42.3457 17.7168 41.2196 18.0886 40.3205 18.797C39.4214 19.5055 38.8068 20.5046 38.5866 21.6166H33.5332C33.4038 21.6087 33.2746 21.6272 33.1529 21.6711C33.0311 21.7149 32.9193 21.783 32.8257 21.8712C32.732 21.9594 32.6581 22.0657 32.6083 22.1834C32.5585 22.3012 32.5346 22.4278 32.5371 22.5552C32.5595 22.8039 32.6726 23.0362 32.8558 23.209C33.0391 23.3818 33.2796 23.4834 33.5332 23.4951H38.5914C38.8328 24.5958 39.4526 25.5813 40.3459 26.2858C41.2391 26.9904 42.3523 27.3711 43.4974 27.364C44.7998 27.3479 46.0459 26.8395 46.9774 25.9441C47.9088 25.0488 48.454 23.8353 48.5 22.5552C48.4808 21.2667 47.9436 20.0379 47.0063 19.1372C46.0691 18.2365 44.8079 17.737 43.4974 17.7478ZM43.4974 25.4405C42.7212 25.4513 41.9715 25.1614 41.4109 24.6333C40.8503 24.1053 40.5228 23.3815 40.5004 22.6185C40.5075 22.5977 40.514 22.5766 40.5185 22.5552C40.5185 22.5285 40.5041 22.5103 40.5016 22.4835C40.5033 21.9006 40.6817 21.3312 41.0124 20.8474C41.3431 20.3636 41.8117 19.987 42.3599 19.7652C42.9082 19.5435 43.5115 19.4865 44.0927 19.6015C44.6738 19.7166 45.2067 19.9984 45.625 20.4115C46.0433 20.8245 46.3279 21.3502 46.4424 21.9222C46.557 22.4941 46.4963 23.0866 46.2686 23.6248C46.0408 24.163 45.6559 24.6228 45.1625 24.9459C44.6691 25.2691 44.0902 25.4412 43.4974 25.4405ZM16.4643 22.5552C16.4666 22.4276 16.4418 22.3009 16.3918 22.1831C16.3418 22.0653 16.2671 21.9589 16.1732 21.8707C16.0794 21.7825 15.968 21.7144 15.846 21.6707C15.7241 21.6269 15.594 21.6085 15.4645 21.6166H10.4039C10.1609 20.5174 9.54154 19.5334 8.64942 18.8292C7.7573 18.125 6.6467 17.7433 5.50272 17.7478C4.85007 17.7286 4.20075 17.8391 3.59248 18.0725C2.98421 18.3059 2.42935 18.6574 1.96237 19.1062C1.4954 19.5549 1.12572 20.0917 0.874432 20.6843C0.623148 21.2769 0.495668 21.9132 0.500112 22.5552C0.518688 23.8441 1.05517 25.0734 1.99256 25.9744C2.92995 26.8755 4.19192 27.375 5.50272 27.364C6.63958 27.3442 7.73771 26.9534 8.62406 26.2531C9.51041 25.5527 10.1347 24.5825 10.3991 23.4951H15.4693C15.7225 23.4826 15.9626 23.3807 16.1455 23.208C16.3284 23.0353 16.4413 22.8035 16.4643 22.5552ZM5.50392 25.4405C4.92943 25.4289 4.37096 25.2516 3.89797 24.9308C3.42498 24.6099 3.05887 24.1596 2.84384 23.6356C2.6288 23.1116 2.57403 22.5371 2.68807 21.9833C2.80211 21.4295 3.07962 20.9208 3.48501 20.5203C3.8904 20.1199 4.40634 19.8453 4.96901 19.7307C5.53167 19.616 6.11599 19.6663 6.64983 19.8754C7.18366 20.0845 7.64358 20.4431 7.97202 20.9067C8.30046 21.3704 8.48287 21.9187 8.49728 22.4835C8.49728 22.5103 8.48279 22.5285 8.48279 22.5552C8.48685 22.5766 8.49184 22.5977 8.49848 22.6185C8.47679 23.3815 8.15093 24.1055 7.59046 24.6336C7.02998 25.1618 6.28012 25.4516 5.50392 25.4405Z" fill="#A055F5"/>
</svg>
