<svg width="47" height="46" viewBox="0 0 47 46" fill="none" xmlns="http://www.w3.org/2000/svg">
<path fill-rule="evenodd" clip-rule="evenodd" d="M23.5523 13.3896C25.3279 13.3896 27.0314 12.6842 28.2869 11.4287C29.5424 10.1732 30.2471 8.47035 30.2471 6.69478C30.2471 4.91921 29.5424 3.21636 28.2869 1.96084C27.0314 0.705326 25.3279 0 23.5523 0C21.7767 0 20.0744 0.705326 18.8189 1.96084C17.5634 3.21636 16.8575 4.91921 16.8575 6.69478C16.8575 8.47035 17.5634 10.1732 18.8189 11.4287C20.0744 12.6842 21.7767 13.3896 23.5523 13.3896ZM23.5523 1.9147C24.811 1.94497 26.0105 2.45835 26.9009 3.3485C27.7913 4.23866 28.3051 5.43731 28.3356 6.69597C28.3321 7.96317 27.8268 9.17744 26.9306 10.0734C26.0344 10.9693 24.8195 11.474 23.5523 11.4772C22.9212 11.4888 22.2951 11.3731 21.7098 11.1369C21.1245 10.9007 20.593 10.5489 20.1467 10.1026C19.7004 9.65626 19.3487 9.12459 19.1125 8.53928C18.8763 7.95396 18.7598 7.32704 18.7713 6.69597C18.7749 5.42898 19.2805 4.21491 20.1764 3.31901C21.0723 2.42311 22.2853 1.91824 23.5523 1.9147ZM27.3264 35.43V27.9342C30.9891 26.0195 33.0595 20.7526 33.0595 16.2902C33.0425 16.0423 32.9368 15.8089 32.7612 15.633C32.5856 15.4572 32.3517 15.3508 32.1038 15.3335H14.9045C14.7775 15.3281 14.6508 15.3492 14.5324 15.3954C14.414 15.4416 14.3061 15.5119 14.2162 15.6019C14.1264 15.6918 14.0566 15.7994 14.0106 15.9179C13.9645 16.0364 13.9433 16.1632 13.9488 16.2902C13.9488 20.7562 15.8598 26.0195 19.6819 27.9342V35.43C19.6632 35.5599 19.675 35.6923 19.7163 35.8168C19.7577 35.9414 19.8281 36.0545 19.9208 36.1474C20.0135 36.2402 20.1268 36.3102 20.2513 36.3517C20.3757 36.3933 20.5077 36.4053 20.6376 36.3867H26.3707C26.4973 36.3912 26.6238 36.3694 26.7416 36.3228C26.8594 36.2763 26.9661 36.2059 27.0554 36.116C27.1447 36.0262 27.214 35.9189 27.2599 35.8009C27.3057 35.6828 27.327 35.5565 27.3217 35.43H27.3264ZM25.415 27.2952V34.4769H21.5933V27.2952C21.5882 27.0918 21.5255 26.8939 21.4126 26.7246C21.2997 26.5553 21.1408 26.4214 20.955 26.3385C17.9302 25.3817 16.1791 21.0752 15.8602 17.247H30.9888C30.8294 21.0752 28.9199 25.3817 26.0521 26.3385C25.8474 26.3931 25.6697 26.5202 25.5517 26.6962C25.4337 26.8722 25.383 27.0851 25.4102 27.2952H25.415ZM20.4248 41.2021C20.4248 41.2118 20.425 41.2191 20.4177 41.2289C20.4177 41.2812 20.4248 41.3287 20.4248 41.3823C20.4033 41.519 20.3482 41.6483 20.2655 41.7592C20.1828 41.8702 20.0742 41.9592 19.9493 42.0188L13.4745 45.8373C13.4121 45.8974 13.3367 45.9428 13.2546 45.9702C13.1724 45.9976 13.0849 46.0062 12.999 45.9956C12.8172 45.9837 12.6398 45.9353 12.4771 45.8533C12.3144 45.7713 12.1705 45.6574 12.0528 45.5184C11.972 45.2842 11.9745 45.0293 12.0611 44.7972C12.1477 44.5651 12.3127 44.3704 12.5271 44.2464L16.6222 41.7705C8.36079 40.9002 0.554443 38.1188 0.554443 33.5323C0.554443 30.3371 4.52706 27.6202 11.6795 26.022C12.3149 26.022 12.7921 26.3421 12.7921 26.8205C12.856 27.0531 12.8257 27.3015 12.7066 27.5112C12.5874 27.7209 12.3899 27.8749 12.1574 27.9391C6.27693 29.2185 2.4635 31.4545 2.4635 33.5323C2.4635 36.0617 7.97622 39.0025 17.3294 39.913L14.1033 35.4945C13.9712 35.2992 13.9149 35.0627 13.944 34.8288C13.9731 34.5949 14.0855 34.3794 14.2614 34.2225C14.3642 34.1373 14.483 34.0737 14.6109 34.0355C14.7388 33.9973 14.874 33.9851 15.0067 33.9999C15.1394 34.0147 15.2672 34.056 15.3835 34.1214C15.4999 34.1869 15.6015 34.2751 15.6831 34.3807L20.2655 40.5886C20.378 40.7507 20.4287 40.9472 20.4106 41.1436C20.4153 41.1629 20.4198 41.1824 20.4224 41.2021H20.4248ZM46.4455 33.5591C46.4455 38.8504 35.7515 41.8971 25.3758 42.2173C25.2483 42.2223 25.1212 42.2008 25.0025 42.1542C24.8838 42.1076 24.7763 42.0368 24.6863 41.9465C24.5963 41.8561 24.5256 41.7481 24.4795 41.6292C24.4333 41.5102 24.4122 41.3831 24.4177 41.2557C24.3995 41.0231 24.4733 40.7925 24.6221 40.6128C24.7709 40.4331 24.9834 40.3184 25.2153 40.2928C36.7072 39.9727 44.5282 36.6058 44.5282 33.5591C44.5282 31.474 40.6975 29.2294 34.7903 27.9464C34.3107 27.9464 33.9915 27.3049 33.9915 26.8241C34.0731 26.592 34.2243 26.3906 34.4242 26.2471C34.6241 26.1036 34.8629 26.025 35.1089 26.022C42.293 27.6251 46.4432 30.3517 46.4432 33.5591H46.4455Z" fill="#460073"/>
</svg>
